<?xml version="1.0" standalone="no"?>
<!DOCTYPE svg PUBLIC "-//W3C//DTD SVG 20010904//EN"
 "http://www.w3.org/TR/2001/REC-SVG-20010904/DTD/svg10.dtd">
<svg version="1.0" xmlns="http://www.w3.org/2000/svg"
 width="911.000000pt" height="911.000000pt" viewBox="0 0 911.000000 911.000000"
 preserveAspectRatio="xMidYMid meet">
<metadata>
Created by potrace 1.14, written by Peter Selinger 2001-2017
</metadata>
<g transform="translate(0.000000,911.000000) scale(0.100000,-0.100000)"
fill="#000000" stroke="none">
<path d="M1353 5913 c-13 -2 -23 -9 -23 -14 0 -5 -3 -8 -7 -7 -5 1 -57 -22
-118 -52 -60 -29 -112 -54 -115 -55 -34 -8 -130 -64 -134 -77 -2 -10 0 -18 6
-18 5 0 6 -5 3 -11 -10 -16 -12 -69 -3 -63 4 3 4 -6 -2 -20 -6 -17 -6 -27 1
-32 6 -3 6 -10 1 -17 -5 -7 -6 -21 -2 -32 4 -11 4 -30 -1 -42 -5 -13 -4 -25 1
-28 6 -3 6 -15 0 -30 -6 -16 -6 -27 1 -31 7 -4 7 -10 1 -16 -7 -7 -7 -19 -1
-35 5 -13 6 -22 1 -20 -9 6 -8 -45 2 -61 3 -6 2 -13 -4 -17 -7 -4 -7 -12 0
-26 6 -10 7 -19 3 -19 -4 0 -8 -11 -8 -25 0 -14 4 -25 8 -25 4 0 3 -8 -2 -18
-6 -11 -6 -24 0 -35 7 -11 7 -17 0 -17 -7 0 -7 -8 -2 -22 5 -13 5 -32 1 -43
-4 -11 -4 -27 1 -36 5 -9 6 -19 3 -21 -8 -9 -11 -77 -2 -72 4 3 4 -6 -2 -20
-6 -17 -6 -26 1 -26 6 0 6 -6 0 -18 -6 -11 -6 -24 -1 -32 5 -9 5 -19 -2 -27
-7 -9 -7 -13 0 -13 6 0 9 -7 6 -15 -4 -8 -10 -12 -15 -9 -11 6 -62 15 -96 17
-13 1 -23 3 -23 7 0 3 -12 6 -27 6 -34 2 -104 13 -157 24 -22 5 -44 7 -48 4
-4 -3 -8 -1 -8 4 0 5 -11 8 -25 7 -14 -2 -25 0 -25 4 0 4 -10 7 -22 8 -13 0
-27 1 -33 3 -5 1 -20 2 -31 1 -22 -1 -22 -2 -21 -321 0 -297 -3 -334 -21 -335
-4 -1 -42 -14 -84 -30 -53 -20 -80 -37 -85 -50 -3 -11 -7 -57 -8 -101 -2 -45
-5 -86 -8 -91 -3 -5 -32 -16 -64 -23 -32 -8 -60 -15 -63 -16 -3 -1 -15 -5 -28
-9 l-22 -7 2 -327 3 -326 115 -1 c63 0 122 1 130 3 13 3 15 35 15 208 0 137 3
201 10 197 6 -4 6 -1 -1 9 -5 8 -9 43 -7 79 3 85 3 75 3 155 0 39 0 79 0 90 0
11 0 39 0 63 0 40 18 74 37 72 4 -1 15 1 23 3 8 2 19 4 24 5 5 0 13 6 17 14
10 15 10 30 11 -494 0 -219 3 -399 7 -399 3 -1 88 -2 188 -3 118 -1 184 2 186
9 5 16 1 1124 -4 1129 -2 3 -25 -5 -49 -16 -25 -12 -54 -23 -64 -25 -11 -2
-25 -8 -33 -14 -7 -6 -13 -8 -13 -5 0 4 -10 0 -22 -8 -12 -9 -30 -16 -40 -16
-10 0 -18 -5 -18 -11 0 -6 -7 -9 -15 -5 -8 3 -15 0 -15 -6 0 -7 -5 -6 -15 2
-12 10 -13 16 -4 26 6 8 8 14 3 14 -12 0 -11 442 1 456 6 8 22 8 50 1 22 -5
49 -10 60 -12 11 -1 20 -3 20 -4 0 -1 16 -4 35 -6 37 -4 72 -9 130 -20 67 -13
95 -17 111 -17 20 1 43 -35 28 -43 -7 -5 -6 -11 1 -20 7 -9 8 -15 1 -19 -6 -4
-7 -16 -2 -29 5 -12 5 -31 1 -42 -4 -11 -3 -28 2 -37 5 -12 5 -18 -1 -18 -7 0
-7 -8 -2 -22 5 -13 5 -32 1 -43 -4 -11 -4 -28 1 -37 6 -10 5 -19 -1 -23 -8 -5
-8 -11 0 -20 8 -10 8 -15 0 -20 -8 -5 -8 -10 0 -20 7 -9 8 -15 1 -19 -7 -5 -7
-15 -1 -31 5 -14 6 -25 1 -25 -9 0 -8 -30 2 -47 4 -6 3 -14 -2 -18 -6 -3 -7
-15 -2 -28 5 -12 5 -32 0 -44 -5 -13 -4 -25 1 -28 6 -3 6 -15 0 -30 -6 -15 -6
-27 1 -30 5 -4 6 -12 2 -18 -10 -17 -11 -47 -1 -47 5 0 4 -8 -1 -18 -6 -11 -6
-24 0 -35 6 -9 6 -17 1 -17 -10 0 -9 -30 1 -47 4 -6 3 -14 -2 -18 -6 -3 -7
-15 -2 -28 5 -12 5 -31 1 -42 -4 -11 -3 -26 2 -32 7 -8 7 -13 1 -13 -11 0 -11
-29 0 -46 3 -6 4 -14 0 -17 -10 -11 -11 -67 -1 -61 6 4 6 -1 0 -13 -6 -11 -7
-25 -2 -33 5 -8 5 -21 0 -30 -5 -9 -4 -23 2 -34 8 -14 7 -17 -1 -12 -8 5 -8 0
-2 -17 6 -16 6 -28 -1 -35 -6 -6 -6 -12 1 -16 8 -5 8 -13 1 -26 -7 -13 -7 -21
0 -25 7 -4 7 -13 0 -26 -6 -10 -7 -19 -2 -19 5 0 7 -11 4 -25 -5 -29 -27 -26
223 -27 l150 -1 5 117 c3 65 2 124 -3 131 -4 8 -2 17 3 20 8 5 7 11 -1 21 -6
8 -8 14 -3 14 7 0 13 1128 6 1178 -1 7 -6 11 -10 8 -4 -3 -28 0 -53 5 -24 6
-57 12 -74 14 -16 2 -30 4 -30 5 0 1 -9 3 -20 4 -57 8 -105 19 -106 24 -1 4
-2 215 -3 470 l-1 462 226 0 226 0 1 -1207 c0 -665 1 -1220 1 -1234 l1 -27
218 3 c119 2 1831 3 3805 4 l3587 1 0 40 0 40 -3590 0 c-1975 0 -3590 3 -3591
8 -1 4 -2 601 -3 1327 l-1 1320 -275 1 c-151 1 -285 -1 -297 -3z m435 -31 c12
-4 -24 -27 -185 -118 -41 -24 -45 -24 -260 -20 -120 2 -225 5 -233 5 -15 1 35
33 80 51 14 6 59 28 100 49 l75 39 205 -1 c113 0 211 -2 218 -5z m113 -219 c0
-281 0 -2314 0 -2365 l-1 -38 -161 0 c-131 0 -160 3 -156 13 3 8 1 20 -3 27
-5 8 -6 19 -2 24 5 9 7 77 2 101 -1 6 -1 13 0 18 4 17 3 75 -3 90 -4 10 -3 17
1 17 4 0 6 24 5 52 -2 45 -4 494 -3 523 0 6 0 192 -1 415 0 223 -1 412 0 420
3 98 -1 475 -5 481 -3 5 -2 9 3 9 7 0 9 57 3 85 -1 6 -2 15 -1 20 2 6 3 44 3
86 l1 75 76 43 c42 23 90 51 106 61 56 36 65 41 65 35 0 -4 12 3 26 14 15 12
31 21 35 21 5 0 9 -102 10 -227z"/>
<path d="M2299 4898 c-14 -5 -31 -20 -38 -34 -17 -37 -16 -813 2 -816 6 0 42
-2 80 -2 79 -2 76 -6 75 116 0 47 3 92 7 99 5 6 4 10 -1 6 -12 -7 -12 156 1
165 6 5 5 8 -3 8 -10 0 -10 5 -2 20 6 11 7 20 3 20 -7 0 -9 44 -4 84 1 12 57
-49 79 -86 9 -16 20 -28 24 -28 4 0 8 -6 8 -12 0 -7 14 -27 30 -45 17 -18 30
-34 30 -37 0 -6 25 -39 52 -67 9 -9 14 -20 10 -23 -3 -3 3 -6 12 -6 17 0 49
31 57 55 2 6 17 23 34 40 16 16 29 32 28 35 -1 3 9 17 21 31 13 15 32 39 42
55 10 16 24 33 31 37 7 4 13 13 13 18 0 14 28 41 33 32 2 -5 3 -121 2 -260 -1
-219 1 -252 15 -256 8 -2 47 -3 85 -3 l70 1 1 398 c0 359 -2 401 -17 426 -17
28 -74 48 -85 29 -3 -5 -9 -6 -14 -3 -5 3 -37 -29 -71 -72 -33 -43 -69 -88
-80 -101 -10 -12 -19 -26 -19 -31 0 -5 -13 -20 -29 -34 -17 -14 -27 -28 -24
-31 4 -3 1 -6 -5 -6 -7 0 -12 -6 -12 -13 0 -7 -14 -25 -30 -39 -17 -15 -30
-30 -30 -35 4 -25 -21 -4 -65 55 -27 37 -53 69 -57 70 -5 2 -8 9 -8 16 0 6 -8
19 -17 27 -10 9 -25 26 -33 39 -8 13 -23 30 -32 39 -10 8 -18 19 -18 23 0 8
-29 45 -63 80 -10 10 -22 16 -27 13 -6 -4 -10 -2 -10 3 0 11 -18 11 -51 0z"/>
<path d="M3733 4896 c-32 -17 -56 -53 -78 -116 -3 -9 -17 -42 -73 -170 -29
-69 -55 -129 -56 -135 -2 -5 -15 -36 -29 -67 -15 -31 -27 -59 -27 -62 0 -4 -9
-25 -20 -49 -44 -96 -100 -231 -100 -242 0 -8 27 -11 88 -10 48 1 90 3 93 4 7
1 23 37 140 315 77 182 94 215 103 200 5 -11 11 -23 12 -29 2 -9 29 -74 59
-140 7 -16 20 -46 28 -65 8 -19 24 -56 36 -82 12 -26 21 -49 21 -52 0 -6 46
-113 59 -136 6 -11 29 -15 97 -15 97 0 98 1 75 60 -6 17 -12 35 -13 40 -1 6
-8 16 -15 23 -7 8 -11 18 -8 23 4 5 1 9 -5 9 -6 0 -8 5 -5 10 3 6 1 10 -4 10
-6 0 -11 7 -11 16 0 8 -8 34 -19 57 -10 23 -40 92 -65 152 -26 61 -54 124 -64
140 -9 17 -16 32 -15 35 2 12 -83 206 -108 246 -21 34 -64 48 -96 30z"/>
<path d="M5668 4905 c-2 -2 -23 -6 -48 -10 -25 -4 -48 -12 -52 -18 -4 -7 -8
-8 -8 -3 0 5 -7 3 -15 -4 -8 -7 -15 -9 -15 -6 0 11 -60 -27 -94 -59 -89 -86
-93 -238 -7 -313 25 -23 78 -50 111 -57 8 -2 15 -4 15 -5 0 -4 53 -13 82 -14
18 0 33 -4 33 -7 0 -4 12 -6 28 -7 15 0 29 -1 32 -2 3 -1 19 -3 35 -5 85 -10
106 -14 119 -24 7 -6 15 -8 19 -5 9 9 41 -46 43 -73 0 -12 -3 -23 -8 -23 -5 0
-7 -3 -5 -7 3 -5 -1 -14 -9 -21 -8 -7 -14 -10 -14 -7 0 3 -9 1 -21 -5 -11 -6
-30 -14 -42 -16 -33 -8 -177 -12 -177 -5 0 3 -17 7 -38 7 -47 2 -79 8 -88 17
-4 4 -18 7 -31 7 -13 0 -23 5 -23 10 0 6 -9 10 -21 10 -11 0 -29 4 -39 10 -15
8 -21 4 -34 -24 -9 -19 -16 -39 -16 -45 0 -6 -4 -11 -8 -11 -5 0 -13 -15 -19
-33 -9 -31 -8 -34 16 -45 88 -38 121 -51 121 -47 0 3 12 0 27 -6 58 -22 251
-30 343 -15 123 21 235 108 257 199 10 44 -1 147 -17 157 -6 4 -11 10 -10 14
2 11 -47 65 -54 59 -3 -4 -6 -2 -6 4 0 10 -36 26 -52 24 -5 -1 -8 3 -8 7 0 9
-94 34 -140 37 -14 2 -25 3 -25 5 0 1 -13 3 -30 5 -30 3 -106 12 -158 19 -37
6 -77 45 -77 77 0 41 59 83 128 92 18 2 32 -1 32 -7 0 -8 2 -8 8 0 15 21 228
-4 244 -29 4 -7 8 -9 8 -5 0 4 12 3 26 -3 28 -10 64 -4 64 11 0 5 5 21 12 37
6 15 12 30 13 33 0 3 6 14 12 26 18 31 3 44 -64 59 -10 2 -33 8 -52 14 -18 6
-36 10 -40 9 -3 0 -8 1 -11 2 -25 9 -244 23 -252 15z"/>
<path d="M4480 4882 c-18 -7 -34 -22 -37 -32 -3 -11 -8 -20 -12 -20 -6 0 -7
-704 0 -730 2 -8 15 -24 29 -35 23 -19 38 -20 324 -20 l300 0 3 83 c2 71 0 82
-15 83 -9 1 -117 2 -239 3 -122 0 -225 4 -229 9 -11 10 -12 147 -1 147 4 0 6
3 3 8 -2 4 95 7 216 7 248 -1 235 -5 231 77 -1 24 -2 54 -2 69 l-1 25 -221 0
c-134 -1 -223 3 -227 9 -10 16 -8 146 2 153 6 3 116 6 246 6 l235 1 3 83 c1
54 -2 81 -8 77 -5 -3 -10 -3 -10 2 0 14 -554 10 -590 -5z"/>
<path d="M6400 4890 c-5 -3 -8 -33 -7 -68 1 -34 -2 -62 -7 -62 -5 0 -3 -6 3
-13 6 -8 9 -16 6 -19 -3 -3 57 -5 132 -4 l138 0 1 -326 c0 -179 3 -332 6 -340
4 -10 25 -14 84 -13 74 0 79 1 80 22 1 12 4 28 7 36 3 8 3 18 0 21 -9 9 -11
76 -1 82 4 3 6 10 2 15 -8 14 -8 214 0 228 4 6 3 11 -1 11 -5 0 -7 17 -6 38 3
42 3 41 3 141 -1 41 3 77 9 80 5 3 67 6 139 5 l129 -1 1 84 c1 45 -2 83 -6 84
-26 4 -706 3 -712 -1z"/>
<path d="M7483 4893 c-101 -22 -96 1 -97 -436 -1 -205 0 -381 2 -393 3 -18 11
-20 80 -20 42 0 80 4 83 8 3 5 4 62 3 129 -1 82 2 124 11 132 16 17 150 13
167 -4 7 -8 38 -50 68 -94 30 -44 58 -81 62 -83 4 -2 8 -9 8 -15 1 -7 12 -25
25 -42 23 -28 27 -29 114 -30 100 -1 115 8 75 46 -13 12 -24 28 -24 36 0 7 -4
13 -8 13 -5 0 -18 18 -31 40 -12 22 -28 45 -34 52 -22 22 -61 82 -63 95 -1 7
6 15 17 18 10 4 19 11 19 16 0 6 4 7 10 4 15 -9 94 75 114 122 29 66 27 160
-4 230 -29 62 -76 115 -122 135 -15 7 -28 16 -28 19 0 3 -6 6 -12 7 -7 1 -29
4 -48 7 -31 5 -369 13 -387 8z m383 -186 c54 -28 83 -93 64 -143 -9 -23 -60
-82 -60 -69 0 4 -7 2 -15 -5 -13 -11 -174 -17 -281 -11 -19 1 -20 6 -20 114 1
61 4 117 8 122 3 6 60 10 140 9 101 -1 141 -5 164 -17z"/>
<path d="M8401 4868 c-6 -18 -6 -30 0 -33 5 -4 6 -11 2 -17 -9 -15 -8 -76 1
-85 4 -5 53 -9 109 -9 56 -1 109 -2 118 -3 15 -1 16 -28 15 -253 l-1 -253
-122 0 c-66 0 -119 -3 -116 -7 2 -5 1 -8 -4 -8 -11 0 -10 -133 1 -145 11 -13
640 -14 653 -2 11 11 13 139 2 152 -5 6 -53 10 -119 9 -93 -1 -112 2 -118 15
-9 19 -7 479 2 488 3 4 59 7 124 7 l117 1 1 65 c1 115 34 104 -334 105 l-322
0 -9 -27z"/>
<path d="M8044 3789 c-14 -16 -16 -22 -5 -28 8 -6 9 -10 3 -12 -6 -2 -13 -25
-15 -50 -2 -25 -7 -51 -11 -58 -4 -6 -4 -17 1 -24 5 -7 9 -45 9 -84 -1 -51 3
-73 11 -73 21 0 27 22 29 105 1 44 4 90 7 102 3 13 2 25 -2 27 -15 9 -12 76 4
82 19 8 20 34 2 34 -8 0 -22 -9 -33 -21z"/>
<path d="M2246 3750 c-2 -3 -3 -68 -2 -145 l1 -140 65 -1 c76 -2 95 3 81 20
-6 7 -30 11 -55 9 -49 -3 -55 1 -60 45 -4 41 12 59 57 57 21 0 43 5 49 12 8
10 5 13 -13 14 -61 3 -75 5 -84 11 -10 6 -12 74 -3 84 3 2 26 5 53 7 27 2 50
8 52 14 5 13 -56 23 -63 11 -3 -5 -10 -5 -17 -1 -13 8 -57 11 -61 3z"/>
<path d="M2600 3753 c-41 -17 -61 -81 -36 -115 6 -8 32 -27 57 -42 46 -26 58
-45 51 -78 -4 -22 -50 -37 -86 -27 -17 5 -32 6 -34 4 -10 -10 9 -35 28 -36 11
-1 26 -2 33 -2 35 -2 77 16 83 36 23 69 3 106 -73 143 -38 19 -45 34 -29 65 9
19 20 24 49 25 21 1 43 6 50 13 6 6 9 11 7 12 -60 6 -88 7 -100 2z"/>
<path d="M2932 3747 c-27 -15 -62 -58 -64 -81 -5 -60 -3 -126 5 -126 4 0 5 -4
2 -10 -3 -5 -1 -10 6 -10 7 0 9 -3 6 -6 -9 -9 44 -54 63 -54 8 0 44 -9 79 -20
35 -10 68 -17 73 -14 16 10 -13 34 -40 34 l-26 0 23 21 c12 11 27 33 33 47 18
43 17 124 -1 162 -27 57 -105 85 -159 57z m116 -54 c25 -27 30 -99 12 -149
-11 -28 -44 -57 -69 -61 -25 -3 -61 20 -73 49 -7 15 -15 28 -18 28 -8 0 -5 74
4 88 4 7 5 16 2 19 -3 4 10 21 30 39 32 29 38 32 62 22 15 -6 37 -22 50 -35z"/>
<path d="M3279 3754 c-7 -36 -4 -226 3 -230 5 -3 6 -9 3 -13 -7 -13 38 -48 69
-54 55 -9 102 20 113 73 2 8 5 59 7 113 2 77 0 100 -11 104 -23 9 -26 -3 -26
-104 0 -54 -3 -108 -8 -121 -12 -30 -52 -45 -84 -30 -30 14 -38 48 -37 160 0
64 -3 90 -14 99 -8 6 -15 8 -15 3z"/>
<path d="M3733 3752 c-5 -4 -14 -20 -18 -37 -13 -46 -12 -46 -39 -123 -14 -41
-30 -81 -35 -90 -6 -10 -4 -20 6 -30 18 -18 29 -5 39 46 6 32 11 35 69 35 36
0 41 -5 55 -45 16 -46 40 -63 40 -28 0 33 -82 269 -95 274 -7 2 -16 1 -22 -2z
m36 -111 c18 -54 15 -61 -24 -61 -19 0 -35 1 -35 3 0 2 7 27 16 56 16 57 24
57 43 2z"/>
<path d="M4028 3750 c-4 -14 -6 -248 -2 -267 4 -20 9 -22 62 -18 73 4 107 20
133 62 23 37 31 116 14 148 -12 24 -56 65 -70 66 -5 0 -19 3 -30 5 -30 7 -105
10 -107 4z m135 -45 c38 -16 54 -90 33 -152 -12 -38 -84 -71 -125 -58 -24 7
-28 210 -4 223 15 9 57 3 96 -13z"/>
<path d="M4428 3753 c-12 -3 -18 -15 -19 -36 -1 -34 -1 -237 0 -249 1 -13 29
-9 33 5 2 6 3 36 3 64 0 52 0 53 28 51 36 -3 60 -30 62 -70 1 -17 10 -37 20
-44 21 -15 43 -8 26 9 -6 6 -11 23 -11 38 0 15 -5 31 -10 34 -6 4 -8 10 -5 15
3 4 -2 11 -11 14 -12 5 -11 10 10 33 16 17 23 35 21 52 -1 14 -3 32 -4 38 -1
17 -78 55 -86 43 -4 -6 -13 -7 -23 -2 -9 5 -25 7 -34 5z m109 -56 c12 -14 13
-18 3 -12 -13 8 -13 7 -1 -8 9 -11 10 -17 2 -17 -6 0 -11 -7 -11 -15 0 -18
-35 -37 -62 -33 -18 3 -22 10 -24 50 -2 34 2 50 13 56 22 13 59 3 80 -21z"/>
<path d="M4760 3751 c-13 -8 -15 -34 -14 -145 0 -75 3 -138 6 -141 3 -3 11 -3
19 0 11 4 13 32 11 138 -2 118 -4 158 -6 157 -1 0 -8 -5 -16 -9z"/>
<path d="M5043 3753 c-7 -2 -15 -20 -19 -39 -3 -19 -11 -34 -17 -34 -6 0 -8
-3 -5 -6 4 -3 -9 -50 -27 -104 -31 -92 -33 -110 -14 -110 10 0 29 34 34 62 6
27 17 34 52 32 15 -1 36 -3 46 -3 9 -1 16 -4 15 -8 -6 -24 36 -93 49 -80 6 7
-11 80 -29 124 -6 15 -12 31 -13 36 -2 4 -4 10 -5 15 -2 4 -4 12 -5 17 -4 27
-27 84 -38 93 -7 5 -17 7 -24 5z m31 -101 c3 -15 8 -37 12 -49 6 -21 3 -23
-29 -23 -39 0 -39 2 -22 77 9 37 30 35 39 -5z"/>
<path d="M5344 3735 c-40 -40 -25 -109 26 -128 17 -6 30 -15 30 -20 0 -4 4 -6
9 -2 13 7 31 -27 31 -58 0 -39 -69 -57 -105 -27 -9 7 -12 4 -11 -12 2 -41 102
-44 135 -4 33 39 14 109 -38 136 -58 31 -71 45 -66 70 6 33 24 42 68 35 29 -4
37 -2 37 10 0 8 -6 16 -12 16 -69 8 -82 6 -104 -16z"/>
<path d="M5760 3750 c-25 -6 -25 -7 -28 -125 -3 -157 -2 -160 45 -162 71 -3
153 32 153 65 0 6 4 12 10 14 13 4 18 77 7 118 -14 52 -51 82 -106 84 -25 0
-48 4 -51 7 -3 3 -16 3 -30 -1z m125 -54 c19 -18 26 -36 29 -72 7 -81 -33
-128 -111 -132 -37 -3 -34 -13 -37 128 -1 47 0 88 2 93 2 4 23 7 47 7 32 0 51
-6 70 -24z"/>
<path d="M6125 3739 c-8 -25 -9 -88 -2 -96 4 -3 2 -12 -4 -20 -6 -7 -8 -13 -3
-13 5 0 9 -29 9 -65 0 -36 -4 -65 -8 -65 -5 0 -5 -4 -2 -10 7 -11 136 -12 154
0 20 12 -3 22 -47 22 -62 -1 -70 5 -68 46 2 51 10 60 51 57 19 -1 43 4 53 11
18 14 24 13 -73 18 -29 1 -30 3 -30 49 -1 35 3 47 15 48 8 1 31 2 50 3 33 1
40 5 40 24 0 4 -29 7 -65 7 -51 0 -66 -3 -70 -16z"/>
<path d="M6601 3739 c-13 -10 -20 -19 -16 -19 4 0 2 -6 -4 -13 -6 -8 -8 -16
-5 -19 2 -3 -2 -21 -10 -39 -23 -54 -29 -73 -27 -86 1 -7 -2 -13 -7 -13 -5 0
-9 -6 -9 -12 -1 -7 -4 -27 -8 -44 -5 -25 -4 -31 10 -31 10 0 18 11 22 29 3 16
10 31 14 34 5 3 7 10 4 15 -4 5 6 9 22 10 15 0 35 2 44 4 24 4 40 -9 42 -33 1
-12 5 -22 9 -22 4 0 8 -7 8 -15 0 -8 2 -15 4 -15 2 0 11 -3 19 -6 11 -4 14 0
12 13 -2 10 -4 19 -5 21 -2 1 -3 5 -4 10 -15 55 -30 99 -37 108 -5 6 -10 24
-12 40 -2 16 -9 39 -15 50 -6 12 -9 24 -6 26 2 3 -1 10 -8 16 -10 7 -19 5 -37
-9z m29 -72 c0 -13 3 -27 7 -31 4 -4 9 -18 10 -31 3 -23 0 -25 -37 -25 -31 0
-39 3 -33 13 4 6 8 15 9 20 1 4 2 8 4 10 2 3 11 40 12 55 2 22 28 12 28 -11z"/>
<path d="M7602 3747 c-5 -7 -9 -19 -10 -27 0 -8 -3 -70 -7 -137 -6 -108 -4
-123 9 -123 10 0 16 9 17 23 1 12 3 42 4 67 1 25 3 65 4 90 2 56 10 44 47 -70
15 -47 31 -90 37 -97 13 -18 36 7 44 49 3 18 9 38 13 43 4 6 13 31 21 58 15
52 28 61 30 20 1 -16 3 -48 4 -73 2 -25 5 -60 6 -77 1 -20 7 -33 16 -33 11 0
18 24 15 51 -1 3 -3 51 -6 105 -7 124 -10 140 -27 136 -19 -5 -41 -24 -34 -30
3 -3 1 -10 -4 -16 -5 -6 -14 -29 -20 -51 -11 -35 -19 -58 -26 -75 -2 -3 -6
-15 -10 -27 -4 -13 -12 -20 -17 -17 -5 3 -7 12 -4 20 3 7 1 16 -5 19 -5 4 -7
11 -4 16 4 5 1 9 -4 9 -6 0 -10 3 -9 8 2 10 -13 65 -22 77 -4 6 -10 22 -14 36
-7 30 -30 44 -44 26z"/>
<path d="M8913 3753 c-13 -2 -23 -9 -23 -14 0 -6 -4 -8 -9 -5 -5 3 -18 -14
-30 -39 -64 -136 27 -278 147 -230 53 22 81 77 77 151 -6 108 -64 156 -162
137z m81 -35 c44 -45 58 -131 29 -188 -18 -37 -63 -56 -94 -39 -43 22 -58 51
-59 107 0 53 9 82 38 115 18 20 68 23 86 5z"/>
<path d="M6897 3742 c-1 -4 -3 -68 -2 -142 l0 -135 73 -1 c40 0 75 3 78 7 8
13 -29 25 -73 23 -33 -1 -43 3 -44 15 0 9 -1 64 -1 123 -1 79 -5 108 -14 112
-7 3 -15 2 -17 -2z"/>
<path d="M7197 3743 c-2 -4 -1 -17 3 -28 4 -11 4 -34 -1 -52 -4 -18 -4 -33 0
-33 3 0 6 -24 5 -53 -1 -87 42 -132 116 -120 61 10 81 55 82 180 0 95 -4 113
-26 113 -9 0 -12 -22 -10 -87 2 -100 -9 -159 -34 -172 -24 -12 -63 -4 -78 17
-15 19 -15 26 -18 152 -1 70 -4 85 -18 88 -9 2 -18 -1 -21 -5z"/>
<path d="M8249 3746 c-6 -6 -2 -276 4 -282 16 -17 23 15 22 105 -1 101 8 122
30 73 5 -12 13 -22 17 -22 5 0 8 -7 8 -15 0 -8 5 -15 10 -15 6 0 10 -6 10 -13
0 -7 8 -22 18 -33 10 -11 17 -25 14 -32 -2 -6 1 -12 6 -12 6 0 14 -9 17 -20 7
-22 30 -27 37 -7 3 6 4 71 4 142 -1 108 -3 130 -16 130 -12 0 -15 -18 -14
-104 l0 -104 -23 29 c-12 16 -23 35 -23 42 0 6 -4 12 -10 12 -5 0 -10 5 -10
10 0 14 -50 92 -69 108 -15 13 -25 15 -32 8z"/>
<path d="M8629 3703 c-1 -27 -1 -51 -1 -54 1 -3 2 -41 3 -85 1 -52 6 -84 15
-92 17 -16 17 -22 19 133 2 123 -2 144 -27 145 -5 0 -9 -21 -9 -47z"/>
</g>
</svg>
