<svg preserveAspectRatio="xMidYMid meet" data-bbox="0.006 0.1 29.344 23.94" viewBox="0.006 0.1 29.344 23.94" xmlns="http://www.w3.org/2000/svg" data-type="color" role="img" aria-label="esquadria-aluminio-venda-instalação-conserto-manutenção-são-paulo-melhores-materiais-">
    <g>
        <path d="m11.82 8.67 1.36-.36c.47-.12 1-.24 1.43-.38h.09c2.1-.55 3.34-.88 3.7-1h.22l5.82 3.79 1.06.77.07.05.19.1a2.75 2.75 0 0 0 .36.15l.32.05a2 2 0 0 0 .74 0 2.39 2.39 0 0 0 2.17-2.39 2.34 2.34 0 0 0-.71-1.69 2.46 2.46 0 0 0-.54-.39l-9.71-7a.78.78 0 0 0-.2-.11h-.09a2.7 2.7 0 0 0-1.43-.11h-.08C10.29 1.67 6 2.75 3.81 3.29h-.07l-.19.06a11.13 11.13 0 0 1-2.31.4.69.69 0 0 0-.69.7v.39a.37.37 0 0 0 0 .11v4.52a.67.67 0 0 0 .12.51.7.7 0 0 0 .56.29 5.74 5.74 0 0 1 3.5 1.57l.76.55a7.21 7.21 0 0 0 4.35 1.45h7.42a.9.9 0 0 1 .31 1.64l-1 .26-.41.1c-.47.12-.95.24-1.42.38h-.1c-2.54.67-3.42.9-3.69 1h-.23L4.9 13.43l-1.06-.77-.08-.05-.18-.1a3.47 3.47 0 0 0-.36-.15 1.55 1.55 0 0 0-.31-.06 2 2 0 0 0-.74 0A2.41 2.41 0 0 0 .7 16.39a2.46 2.46 0 0 0 .54.39l9.71 7a.5.5 0 0 0 .19.1h.07a2.63 2.63 0 0 0 .9.16 3 3 0 0 0 .56-.06h.05c2.16-.55 9.45-2.41 12.76-3.22h.08l.18-.06a11.13 11.13 0 0 1 2.31-.4.69.69 0 0 0 .69-.7v-.34a.41.41 0 0 0 0-.11V14.7a.69.69 0 0 0-.68-.8 5.74 5.74 0 0 1-3.5-1.55l-.7-.51a7.21 7.21 0 0 0-4.35-1.51h-7.39a.9.9 0 0 1-.3-1.64zm5.74 3.78a.13.13 0 0 1 0-.06 1.72 1.72 0 0 0 0-.64v-.05h1.95a5.92 5.92 0 0 1 3.56 1.25c.25.18.49.35.72.53a7.71 7.71 0 0 0 3.65 1.76v3.79a17.84 17.84 0 0 0-2 .4h-.07l-.19.07c-3.34.82-10.58 2.67-12.72 3.21a1.37 1.37 0 0 1-.69 0l-9.7-7-.09-.05a.84.84 0 0 1-.24-.18 1 1 0 0 1-.3-.72 1 1 0 0 1 .94-1h.06a.76.76 0 0 1 .3 0h.11l.14.06.05.02 1 .75 6 3.86a.67.67 0 0 0 .21.1 3.21 3.21 0 0 0 .79.06h.12l3.79-1h.11c.47-.14.94-.26 1.4-.37l.42-.11 1.1-.29.16-.07a2.29 2.29 0 0 0-.59-4.24s.01-.07.01-.08zm-5.62-.76h3.91a.37.37 0 0 1 .36.37.37.37 0 0 1-.37.38H9.89a5.92 5.92 0 0 1-3.56-1.25c-.25-.18-.49-.35-.72-.53a7.72 7.72 0 0 0-3.67-1.75V5.12a17.84 17.84 0 0 0 2-.4h.08l.18-.07c2.2-.54 6.49-1.62 12.73-3.21a1.29 1.29 0 0 1 .65 0h.05l9.26 6.72.41.3h.09a1.44 1.44 0 0 1 .25.18 1 1 0 0 1 .31.72 1 1 0 0 1-.94 1h-.08a.81.81 0 0 1-.31 0h-.11l-.07.04h-.08l-1-.75-6-3.86a.58.58 0 0 0-.21-.1 3.21 3.21 0 0 0-.79-.06h-.12l-3.79 1h-.11c-.47.14-.94.26-1.4.37l-1.48.39-.15.07a2.29 2.29 0 0 0 .73 4.27z" fill="#09253b" data-color="1"></path>
    </g>
</svg>