<svg preserveAspectRatio="xMidYMid meet" data-bbox="-0.01 0 26.43 32.05" viewBox="-0.01 0 26.43 32.05" xmlns="http://www.w3.org/2000/svg" data-type="color" role="img" aria-label="guarda-corpo-de-vidro-venda-instalaçao-conserto-troca-de-vidro-alto-padrao-sao-paulo-corremao-de-vidro">
    <g>
        <path d="M1.32 24.79v4.8a2.46 2.46 0 0 0 2.46 2.46h.83a2.46 2.46 0 0 0 2.45-2.46v-4.8a2 2 0 0 0 1.33-1.91v-.59a2 2 0 0 0-1.33-1.91V2.46A2.46 2.46 0 0 0 4.61 0h-.83a2.46 2.46 0 0 0-2.46 2.46v17.92a2 2 0 0 0-1.33 1.91v.63a2 2 0 0 0 1.33 1.87ZM3.78 1.56h.83a.89.89 0 0 1 .89.9v17.78H2.88V2.46a.9.9 0 0 1 .9-.9ZM1.56 22.29a.5.5 0 0 1 .49-.49h4.29a.5.5 0 0 1 .49.49v.63a.5.5 0 0 1-.49.49H2.05a.5.5 0 0 1-.49-.49Zm3 8.2h-.83a.9.9 0 0 1-.9-.9v-4.62h2.62v4.62a.89.89 0 0 1-.84.9Z" fill="#075ea3" data-color="1"></path>
        <path d="M10.18 17.79v11.8a2.46 2.46 0 0 0 2.45 2.46h.83a2.46 2.46 0 0 0 2.46-2.46V17.72a2 2 0 0 0 1.24-1.88v-.63a2 2 0 0 0-1.24-1.88V2.46A2.46 2.46 0 0 0 13.46 0h-.83a2.46 2.46 0 0 0-2.45 2.46v10.81a2 2 0 0 0-1.41 1.94v.63a2 2 0 0 0 1.41 1.95Zm2.45-16.23h.83a.9.9 0 0 1 .9.9v10.7h-2.62V2.46a.89.89 0 0 1 .89-.9Zm-2.3 13.65a.5.5 0 0 1 .49-.49h4.29a.5.5 0 0 1 .49.49v.63a.5.5 0 0 1-.49.49h-4.29a.5.5 0 0 1-.49-.49Zm3.13 15.28h-.83a.89.89 0 0 1-.89-.9v-11.7h2.62v11.7a.9.9 0 0 1-.9.9Z" fill="#075ea3" data-color="1"></path>
        <path d="M19.35 10.84v18.75a2.46 2.46 0 0 0 2.46 2.46h.83a2.46 2.46 0 0 0 2.45-2.46V10.84a2 2 0 0 0 1.33-1.92V8.3a2.05 2.05 0 0 0-1.33-1.92V2.46A2.46 2.46 0 0 0 22.64 0h-.83a2.46 2.46 0 0 0-2.46 2.46v3.92a2.06 2.06 0 0 0-1.36 1.92v.62a2 2 0 0 0 1.36 1.92Zm2.46-9.28h.83a.89.89 0 0 1 .89.9v3.79h-2.62V2.46a.9.9 0 0 1 .9-.9ZM19.59 8.3a.49.49 0 0 1 .49-.49h4.29a.5.5 0 0 1 .49.49v.62a.5.5 0 0 1-.49.49h-4.29a.49.49 0 0 1-.49-.49Zm3 22.19h-.83a.9.9 0 0 1-.9-.9V10.98h2.62v18.61a.89.89 0 0 1-.84.9Z" fill="#075ea3" data-color="1"></path>
    </g>
</svg>