<svg preserveAspectRatio="xMidYMid meet" data-bbox="0 0 38.09 31.444" viewBox="0 0 38.09 31.444" xmlns="http://www.w3.org/2000/svg" data-type="color" role="img" aria-label="envidraçamento-de-sacada-venda-instalação-conserto-manutenção-sao-paulo-troca-de-vidros-alto-padrao">
    <g>
        <path d="M28.76 0 25.5 3.25a3.87 3.87 0 0 0-.49 0 5.54 5.54 0 0 0-5.65 1.01l-.05.05-.8.81a5.25 5.25 0 0 0-6.06-.34l-3-3L0 11.22l3.58 3.57a9.2 9.2 0 0 0 1.7 4.93 13.54 13.54 0 0 0 1.57 1.9c.74.75 1.48 1.48 2.23 2.23a2.15 2.15 0 0 0 .38 3 2.45 2.45 0 0 0 2.85.67c.84 1.27 1.62 1.89 2.47 2l1 1a3.3 3.3 0 0 0 3.89.51 2.25 2.25 0 0 0 .91-1c2.12 1.78 3.54 1.81 5.21-.69a2.46 2.46 0 0 0 2.85-.67 2.19 2.19 0 0 0 .23-3.22s-.26-.34-.25-.34a2 2 0 0 0 1.57-.82 2.41 2.41 0 0 0-.11-3.28c.39-.39.78-.77 1.16-1.16a12.49 12.49 0 0 0 1.57-1.9 9 9 0 0 0 1.7-4.9l3.58-3.58ZM7.42 20.23a8.77 8.77 0 0 1-2.25-3.85 6.48 6.48 0 0 1-.17-1 8 8 0 0 1 0-.85l-3.64-3.6 7.8-7.8 2.5 2.5.16.16 1.21.1.08-.2c.47-.32 2.45-1.42 5.09.6l3.49 3.5a1 1 0 0 1 0 1.33l-.23.23a.94.94 0 0 1-1.33 0l-3.57-3.59-.87.61 1 1.13.42.42-1.23 1.24a.57.57 0 0 0-.19.32l-.06.06c-2.41 2.41-4.81 4.8-7.21 7.22a3.7 3.7 0 0 0-1 1.47ZM19 29.96a1.21 1.21 0 0 1-1 .39 2.09 2.09 0 0 1-1.24-.75l-.51-.51a7.1 7.1 0 0 0 1.26-.88 2.22 2.22 0 0 0 .92 1 3.12 3.12 0 0 0 .76.31 1 1 0 0 1-.19.44Zm5.15-.48c-.54.62-1.15.68-1.93 0-.13-.11-.24-.22-.36-.34a3.48 3.48 0 0 0 .5-.42l1.34-1.31a1.85 1.85 0 0 0 .14.14c.72.73.82 1.33.31 1.93Zm3.73-2a1.28 1.28 0 0 1-2.11 0c-.37-.37-.74-.73-1.1-1.1.6-.6 1.21-1.18 1.82-1.78l1 1c.68.75.79 1.37.39 1.92Zm1.48-4.33a1.25 1.25 0 0 1-1.74.66l-.16-.09c.59-.58 1.17-1.16 1.75-1.75a1.15 1.15 0 0 1 .15 1.18Zm3.86-10.43a6 6 0 0 1 0 .85 6.27 6.27 0 0 1-.17 1 8.62 8.62 0 0 1-2.26 3.87c-1.49 1.56-3 3.05-4.56 4.57s-3.18 3.2-4.79 4.78a2.07 2.07 0 0 1-1.24.75 1.21 1.21 0 0 1-1-.39 1.42 1.42 0 0 1-.23-1.2 2.74 2.74 0 0 1 .77-1.08l2.19-2.15c.36-.36.72-.72 1.07-1.09s1.47-1.2.86-1.78-1.38.49-1.72.84l-1.08 1.03c-1.69 1.65-3.35 3.32-5.08 4.93-.79.72-1.4.67-1.93 0s-.41-1.2.32-1.93l5.75-5.75c.26-.27.5-.44.54-.86s-.07-.57-.38-.61a1.11 1.11 0 0 0-1.1.46l-6.76 6.76a1.28 1.28 0 0 1-2.06 0c-.4-.56-.29-1.18.37-1.84q3.43-3.45 6.87-6.87c.38-.38.67-.79.21-1.22s-.81-.05-1.15.28l-5.3 5.32a4.16 4.16 0 0 1-.77.63 1.26 1.26 0 0 1-1.75-.66c-.28-.7.08-1.15.53-1.59 2.93-2.92 5.86-5.84 8.76-8.79l1.2 1.21a2.11 2.11 0 0 0 3 0l.23-.23a2.07 2.07 0 0 0 .62-1.48 2.1 2.1 0 0 0-.55-1.41l-2.66-2.68-.61-.52.71-.71a5 5 0 0 1 5.68-.53l.79-.79 2.5-2.5 7.79 7.8Z" fill="#09253b" data-color="1"></path>
    </g>
</svg>