<svg preserveAspectRatio="xMidYMid meet" data-bbox="-0.019 0.01 36.886 37.03" viewBox="-0.019 0.01 36.886 37.03" xmlns="http://www.w3.org/2000/svg" data-type="color" role="img" aria-label="esquadrias-pvc-venda-instalação-manutenção-conserto-serviço-alta-qualidade-sao-paulo">
    <g>
        <path d="M.01 25.01v6.48a.69.69 0 0 0 .7.69 14.35 14.35 0 0 1 3.05.53l.25.09h.08c2.84.7 8.56 2.15 16.56 4.18h.06a3.66 3.66 0 0 0 .65.06 3.29 3.29 0 0 0 1.09-.19h.1l.19-.1 12.62-9.15a2.79 2.79 0 0 0 .66-.48 2.91 2.91 0 0 0-1.79-4.95 2.49 2.49 0 0 0-.91 0l-.36.08a2.44 2.44 0 0 0-.44.19 1.55 1.55 0 0 0-.22.12l-.08.05-1.39 1-7.61 4.93a1.59 1.59 0 0 1-.39 0c-.33-.08-1.46-.37-4.82-1.26h-.13c-.6-.18-1.23-.34-1.85-.49l-1.8-.48a1.38 1.38 0 0 1 .46-2.53h4.85a2.08 2.08 0 0 0 0-4.16h-7.67a9.28 9.28 0 0 0-5.53 1.91l-1 .71C3.86 23.34 2.57 24.3.68 24.3a.7.7 0 0 0-.69.81Zm1.38 5.79v-5.27a9.72 9.72 0 0 0 4.79-2.29c.31-.23.62-.47.94-.69a7.9 7.9 0 0 1 4.74-1.66h7.79a.69.69 0 1 1 0 1.38h-5a2.77 2.77 0 0 0-.89 5.16.52.52 0 0 0 .16.06l1.91.51c.61.15 1.22.31 1.82.48h.15c2.9.77 4.56 1.2 4.91 1.28h.12a3.18 3.18 0 0 0 1-.07.67.67 0 0 0 .21-.09l7.74-5 1.35-1 .13-.08.22-.09h.18a1.65 1.65 0 0 1 .45 0h.08a1.52 1.52 0 0 1 1 2.6 1.84 1.84 0 0 1-.37.27l-.09.05-12.7 9.22a1.79 1.79 0 0 1-1 .08c-8-2-13.69-3.47-16.54-4.17l-.22-.1h-.08a20.26 20.26 0 0 0-2.74-.53Z" fill="#09253b" data-color="1"></path>
        <path d="M20.71 11.71a9.45 9.45 0 0 0-5.61 2.72.73.73 0 0 0 0 1 9.54 9.54 0 0 0 13.09.37l4.25 4.21.72-.72-4.22-4.22a9.56 9.56 0 0 0-.37-13.1.71.71 0 0 0-.94 0l-.07.04-.16.14a9.44 9.44 0 0 0-2.65 5.18A11.74 11.74 0 0 0 13.88.01h-.07a.69.69 0 0 0-.66.67 11.69 11.69 0 0 0 7.56 11.03Zm5.76 2.75a.707.707 0 0 0 1-1 8.15 8.15 0 0 1 .64-10.07 8.16 8.16 0 0 1-.14 10.69l-.11.12a1.29 1.29 0 0 1-.19.21l-.1.1a.52.52 0 0 0-.11.1l-.06.05-.1.08a8.16 8.16 0 0 1-10.68.16 8.15 8.15 0 0 1 9.85-.44ZM14.56 1.41a10.35 10.35 0 0 1 9.5 8.46 10.26 10.26 0 0 1 .21 1.19 10.31 10.31 0 0 1-9.71-9.65Z" fill="#09253b" data-color="1"></path>
    </g>
</svg>